<svg width="23" height="23" viewBox="0 0 23 23" fill="none" xmlns="http://www.w3.org/2000/svg">
<path d="M11.0232 1.83716C7.46823 1.83716 4.59302 4.71237 4.59302 8.26734C4.59302 13.09 11.0232 20.2091 11.0232 20.2091C11.0232 20.2091 17.4534 13.09 17.4534 8.26734C17.4534 4.71237 14.5782 1.83716 11.0232 1.83716ZM11.0232 10.5638C10.4141 10.5638 9.83001 10.3219 9.39933 9.8912C8.96866 9.46053 8.7267 8.87641 8.7267 8.26734C8.7267 7.65827 8.96866 7.07415 9.39933 6.64347C9.83001 6.2128 10.4141 5.97085 11.0232 5.97085C11.6323 5.97085 12.2164 6.2128 12.6471 6.64347C13.0777 7.07415 13.3197 7.65827 13.3197 8.26734C13.3197 8.87641 13.0777 9.46053 12.6471 9.8912C12.2164 10.3219 11.6323 10.5638 11.0232 10.5638Z" fill="url(#paint0_linear)" fill-opacity="0.9"/>
<defs>
<linearGradient id="paint0_linear" x1="11.0232" y1="1.83716" x2="11.0232" y2="20.2091" gradientUnits="userSpaceOnUse">
<stop offset="0.291667" stop-color="#8752CC"/>
</linearGradient>
</defs>
</svg>
