<svg width="12" height="11" viewBox="0 0 12 11" fill="none" xmlns="http://www.w3.org/2000/svg">
<path d="M10.3622 4.58106H7.10558V1.47242C7.10558 1.09097 6.7815 0.781616 6.38188 0.781616H5.65817C5.25855 0.781616 4.93447 1.09097 4.93447 1.47242V4.58106H1.6778C1.27818 4.58106 0.954102 4.89041 0.954102 5.27187V5.96267C0.954102 6.34413 1.27818 6.65348 1.6778 6.65348H4.93447V9.76212C4.93447 10.1436 5.25855 10.4529 5.65817 10.4529H6.38188C6.7815 10.4529 7.10558 10.1436 7.10558 9.76212V6.65348H10.3622C10.7619 6.65348 11.0859 6.34413 11.0859 5.96267V5.27187C11.0859 4.89041 10.7619 4.58106 10.3622 4.58106Z" fill="#F9F3F3"/>
</svg>
