<svg width="96" height="128" viewBox="0 0 96 128" fill="none" xmlns="http://www.w3.org/2000/svg">
<path d="M74.0577 88.2524C87.7539 79.4259 95.8954 64.5366 95.8954 48.198C95.8954 21.9272 74.5202 0.552002 48.2494 0.552002C21.9786 0.552002 0.603455 21.9272 0.603455 48.198C0.603455 64.5346 8.74496 79.424 22.4412 88.2524V101.798L22.3658 101.802C21.2699 101.843 20.4162 102.765 20.4579 103.86C20.4996 104.93 21.3791 105.77 22.4392 105.77L22.4412 109.739L22.3658 109.743C21.2699 109.784 20.4162 110.706 20.4579 111.801C20.4996 112.871 21.3791 113.711 22.4392 113.711L22.4412 115.696C22.4412 116.225 22.6496 116.729 23.0229 117.1L26.9934 121.071C27.3666 121.444 27.8689 121.652 28.3969 121.652H36.8541C39.4369 125.363 43.6854 127.644 48.2494 127.644C52.8135 127.644 57.062 125.365 59.6448 121.652H68.0999C68.626 121.652 69.1323 121.444 69.5035 121.071L73.476 117.1C73.8492 116.729 74.0577 116.225 74.0577 115.696V111.728L74.1331 111.724C75.229 111.682 76.0826 110.761 76.0409 109.665C76.0012 108.595 75.0384 107.757 74.0577 107.769V103.787L74.1331 103.783C75.229 103.741 76.0826 102.82 76.0409 101.724C76.0012 100.654 75.0384 99.7966 74.0577 99.8284V88.2524ZM4.57395 48.198C4.57395 24.1149 24.1664 4.5225 48.2494 4.5225C72.3325 4.5225 91.9249 24.1149 91.9249 48.198C91.9249 63.5162 84.115 77.4447 71.0361 85.4631C70.4465 85.8224 70.0872 86.4656 70.0872 87.1545V91.8735H26.4117V87.1545C26.4117 86.4637 26.0524 85.8224 25.4627 85.4611C12.3839 77.4467 4.57395 63.5162 4.57395 48.198ZM26.4117 95.844H70.0872V99.9653L26.4117 101.647V95.844ZM48.2494 123.673C46.0577 123.673 43.9613 122.939 42.2599 121.652H54.2369C52.5376 122.939 50.4412 123.673 48.2494 123.673ZM70.0872 114.875L67.278 117.682H29.2188L26.4117 114.875V113.56L70.0872 111.879V114.875ZM70.0872 107.906L26.4117 109.588V105.619L70.0872 103.938V107.906Z" fill="#AFFAEC"/>
<path d="M83.9839 48.198C83.9839 28.4944 67.953 12.4635 48.2494 12.4635C28.5458 12.4635 12.515 28.4944 12.515 48.198C12.515 67.9016 28.5458 83.9325 48.2494 83.9325C67.953 83.9325 83.9839 67.9016 83.9839 48.198ZM16.4854 48.198C16.4854 30.6841 30.7356 16.434 48.2494 16.434C65.7633 16.434 80.0134 30.6841 80.0134 48.198C80.0134 65.7118 65.7633 79.962 48.2494 79.962C30.7356 79.962 16.4854 65.7118 16.4854 48.198Z" fill="#AFFAEC"/>
<path d="M37.7455 36.8741C36.9692 36.0979 35.7146 36.0979 34.9383 36.8741L25.0081 46.8063C24.2319 47.5826 24.2319 48.8372 25.0081 49.6135L34.9383 59.5437C35.3255 59.9308 35.8337 60.1254 36.3419 60.1254C36.8501 60.1254 37.3584 59.9308 37.7455 59.5437C38.5217 58.7674 38.5217 57.5128 37.7455 56.7365L29.2188 48.2099L37.7455 39.6813C38.5217 38.907 38.5217 37.6504 37.7455 36.8741Z" fill="#AFFAEC"/>
<path d="M58.7514 59.5437C59.1385 59.9308 59.6468 60.1254 60.155 60.1254C60.6632 60.1254 61.1714 59.9308 61.5585 59.5437L71.4888 49.6135C72.265 48.8372 72.265 47.5826 71.4888 46.8063L61.5585 36.8741C60.7823 36.0979 59.5276 36.0979 58.7514 36.8741C57.9752 37.6504 57.9752 38.905 58.7514 39.6813L67.278 48.2099L58.7514 56.7365C57.9752 57.5128 57.9752 58.7674 58.7514 59.5437Z" fill="#AFFAEC"/>
<path d="M52.6845 30.3923C51.6204 30.1203 50.5444 30.7715 50.2784 31.8375L42.3354 63.6214C42.0674 64.6835 42.7146 65.7615 43.7806 66.0275C43.9414 66.0692 44.1042 66.0871 44.2631 66.0871C45.1525 66.0871 45.9604 65.4855 46.1868 64.5822L54.1298 32.7984C54.3978 31.7363 53.7506 30.6583 52.6845 30.3923Z" fill="#AFFAEC"/>
</svg>
