<svg width="134" height="178" viewBox="0 0 134 178" fill="none" xmlns="http://www.w3.org/2000/svg">
<path d="M102.926 122.781C122.101 110.424 133.499 89.5784 133.499 66.7044C133.499 29.9252 103.574 0 66.7949 0C30.0157 0 0.0904846 29.9252 0.0904846 66.7044C0.0904846 89.5756 11.4886 110.421 30.6633 122.781V141.744L30.5577 141.75C29.0235 141.808 27.8284 143.098 27.8868 144.632C27.9451 146.13 29.1764 147.305 30.6605 147.305L30.6633 152.861L30.5577 152.867C29.0235 152.925 27.8284 154.215 27.8868 155.749C27.9451 157.247 29.1764 158.423 30.6605 158.423L30.6633 161.202C30.6633 161.942 30.9552 162.647 31.4777 163.167L37.0364 168.726C37.5589 169.248 38.2621 169.54 39.0014 169.54H50.8414C54.4573 174.735 60.4051 177.928 66.7949 177.928C73.1846 177.928 79.1324 174.738 82.7483 169.54H94.5856C95.3221 169.54 96.0308 169.248 96.5506 168.726L102.112 163.167C102.635 162.647 102.926 161.942 102.926 161.202V155.646L103.032 155.641C104.566 155.582 105.761 154.293 105.703 152.759C105.647 151.26 104.299 150.088 102.926 150.104V144.529L103.032 144.523C104.566 144.465 105.761 143.175 105.703 141.641C105.647 140.143 104.299 138.942 102.926 138.987V122.781ZM5.64918 66.7044C5.64918 32.9881 33.0786 5.5587 66.7949 5.5587C100.511 5.5587 127.941 32.9881 127.941 66.7044C127.941 88.1498 117.007 107.65 98.6962 118.876C97.8708 119.379 97.3677 120.279 97.3677 121.244V127.85H36.222V121.244C36.222 120.276 35.719 119.379 34.8935 118.873C16.5831 107.653 5.64918 88.1498 5.64918 66.7044ZM36.222 133.409H97.3677V139.179L36.222 141.533V133.409ZM66.7949 172.37C63.7265 172.37 60.7915 171.341 58.4096 169.54H75.1774C72.7982 171.341 69.8633 172.37 66.7949 172.37ZM97.3677 160.052L93.4349 163.982H40.152L36.222 160.052V158.212L97.3677 155.858V160.052ZM97.3677 150.296L36.222 152.65V147.094L97.3677 144.74V150.296Z" fill="#57D9C1"/>
<path d="M116.823 66.7044C116.823 39.1193 94.3799 16.6761 66.7949 16.6761C39.2098 16.6761 16.7666 39.1193 16.7666 66.7044C16.7666 94.2894 39.2098 116.733 66.7949 116.733C94.3799 116.733 116.823 94.2894 116.823 66.7044ZM22.3253 66.7044C22.3253 42.185 42.2754 22.2348 66.7949 22.2348C91.3143 22.2348 111.264 42.185 111.264 66.7044C111.264 91.2238 91.3143 111.174 66.7949 111.174C42.2754 111.174 22.3253 91.2238 22.3253 66.7044Z" fill="#57D9C1"/>
<path d="M52.0893 50.851C51.0026 49.7642 49.2461 49.7642 48.1593 50.851L34.257 64.7561C33.1703 65.8428 33.1703 67.5993 34.257 68.6861L48.1593 82.5883C48.7013 83.1303 49.4128 83.4027 50.1243 83.4027C50.8358 83.4027 51.5473 83.1303 52.0893 82.5883C53.176 81.5016 53.176 79.7451 52.0893 78.6584L40.152 66.721L52.0893 54.781C53.176 53.697 53.176 51.9377 52.0893 50.851Z" fill="#57D9C1"/>
<path d="M81.4976 82.5883C82.0396 83.1303 82.7511 83.4027 83.4626 83.4027C84.1741 83.4027 84.8856 83.1303 85.4276 82.5883L99.3299 68.6861C100.417 67.5993 100.417 65.8428 99.3299 64.7561L85.4276 50.851C84.3409 49.7642 82.5843 49.7642 81.4976 50.851C80.4109 51.9377 80.4109 53.6942 81.4976 54.781L93.4349 66.721L81.4976 78.6584C80.4109 79.7451 80.4109 81.5016 81.4976 82.5883Z" fill="#57D9C1"/>
<path d="M73.0039 41.7764C71.5142 41.3956 70.0078 42.3072 69.6354 43.7998L58.5152 88.2971C58.14 89.7841 59.046 91.2933 60.5385 91.6657C60.7637 91.7241 60.9916 91.7491 61.2139 91.7491C62.4591 91.7491 63.5903 90.907 63.9071 89.6423L75.0273 45.145C75.4025 43.658 74.4964 42.1488 73.0039 41.7764Z" fill="#57D9C1"/>
</svg>
