<svg width="24" height="20" viewBox="0 0 24 20" fill="none" xmlns="http://www.w3.org/2000/svg">
<path d="M8.08101 9.88159C10.6316 9.88159 12.6987 7.72384 12.6987 5.06149C12.6987 2.39914 10.6316 0.241394 8.08101 0.241394C5.53044 0.241394 3.46329 2.39914 3.46329 5.06149C3.46329 7.72384 5.53044 9.88159 8.08101 9.88159ZM11.3134 11.0866H10.7109C9.91005 11.4707 9.01898 11.6891 8.08101 11.6891C7.14303 11.6891 6.25556 11.4707 5.45107 11.0866H4.8486C2.17177 11.0866 0 13.3536 0 16.1477V17.7142C0 18.7122 0.775632 19.5218 1.73164 19.5218H14.4304C15.3864 19.5218 16.162 18.7122 16.162 17.7142V16.1477C16.162 13.3536 13.9902 11.0866 11.3134 11.0866ZM22.9659 6.25145L21.963 5.19329C21.7971 5.0163 21.5265 5.0163 21.3569 5.18953L17.5762 9.10585L15.9347 7.38117C15.7688 7.20418 15.4982 7.20418 15.3287 7.3774L14.3149 8.42803C14.1454 8.60125 14.1454 8.88368 14.3113 9.06067L17.2587 12.1598C17.4247 12.3368 17.6952 12.3368 17.8648 12.1636L22.9623 6.88409C23.1283 6.7071 23.1319 6.42468 22.9659 6.25145Z" fill="url(#paint0_linear)" fill-opacity="0.9"/>
<defs>
<linearGradient id="paint0_linear" x1="11.5443" y1="0.241394" x2="11.5443" y2="19.5218" gradientUnits="userSpaceOnUse">
<stop offset="0.291667" stop-color="#8752CC"/>
</linearGradient>
</defs>
</svg>
