<svg width="120" height="98" viewBox="0 0 120 98" fill="none" xmlns="http://www.w3.org/2000/svg">
<path d="M65.1647 69.5576C60.9367 65.6624 55.8904 62.7952 50.384 61.0884C55.462 57.6307 58.7616 52.0773 58.7616 45.8267C58.7617 35.3677 49.5256 26.8588 38.1726 26.8588C26.8197 26.8588 17.5836 35.3677 17.5836 45.8267C17.5836 52.0774 20.8831 57.6308 25.9611 61.0884C20.4547 62.7951 15.4088 65.6623 11.1804 69.5576C3.9707 76.1999 0 85.0313 0 94.4248C0 95.9539 1.34544 97.1934 3.0052 97.1934H73.3399C74.9997 97.1934 76.3451 95.9539 76.3451 94.4248C76.3453 85.0313 72.3746 76.1999 65.1647 69.5576ZM23.5943 45.8267C23.5943 38.421 30.134 32.3961 38.1728 32.3961C46.2116 32.3961 52.7513 38.421 52.7513 45.8267C52.7513 53.2325 46.2116 59.2573 38.1728 59.2573C30.134 59.2575 23.5943 53.2325 23.5943 45.8267ZM6.14982 91.656C7.66987 76.6112 21.4517 64.7947 38.1726 64.7947C54.8936 64.7947 68.6754 76.611 70.1955 91.656H6.14982Z" fill="#E7E4FF"/>
<path d="M104.075 19.6714C103.096 18.7201 101.463 18.6782 100.429 19.5827L83.9629 33.9689L76.1092 26.5402C75.1145 25.6 73.4836 25.5793 72.4622 26.4958C71.4416 27.4114 71.4201 28.9155 72.414 29.8557L82.0431 38.9636C82.5477 39.4412 83.2183 39.682 83.8907 39.682C84.5287 39.682 85.1666 39.4649 85.6661 39.0301L103.979 23.0306C105.012 22.1277 105.056 20.6235 104.075 19.6714Z" fill="#E7E4FF"/>
<path d="M88.1893 0C70.6489 0 56.3789 13.1465 56.3789 29.306C56.3789 45.4655 70.6489 58.612 88.1893 58.612C105.73 58.612 120 45.4655 120 29.306C120 13.1465 105.73 0 88.1893 0ZM88.1893 53.8598C73.4938 53.8598 61.5373 42.8455 61.5373 29.306C61.5373 15.7674 73.4937 4.75227 88.1893 4.75227C102.886 4.75227 114.841 15.7673 114.841 29.306C114.841 42.8454 102.886 53.8598 88.1893 53.8598Z" fill="#E7E4FF"/>
</svg>
