<svg width="19" height="18" viewBox="0 0 19 18" fill="none" xmlns="http://www.w3.org/2000/svg">
<path d="M4.59299 17.5369H13.779V1.87895C13.779 0.841612 13.0075 0 12.0566 0H6.31536C5.36446 0 4.59299 0.841612 4.59299 1.87895V17.5369ZM6.88948 2.50526H11.4825V3.7579H6.88948V2.50526ZM18.3719 5.63685V15.6579C18.3719 16.6952 17.6005 17.5369 16.6496 17.5369H14.9272V3.7579H16.6496C17.6005 3.7579 18.3719 4.59951 18.3719 5.63685ZM3.44474 17.5369H1.72237C0.771478 17.5369 0 16.6952 0 15.6579V5.63685C0 4.59951 0.771478 3.7579 1.72237 3.7579H3.44474V17.5369Z" fill="url(#paint0_linear)" fill-opacity="0.9"/>
<defs>
<linearGradient id="paint0_linear" x1="9.18597" y1="0" x2="9.18597" y2="17.5369" gradientUnits="userSpaceOnUse">
<stop offset="0.291667" stop-color="#8752CC"/>
</linearGradient>
</defs>
</svg>
