<svg width="46" height="48" viewBox="0 0 46 48" fill="none" xmlns="http://www.w3.org/2000/svg">
<path d="M32.6307 29.8462H30.6073L29.8901 29.1245C32.4001 26.0772 33.9113 22.121 33.9113 17.8174C33.9113 8.22104 26.4581 0.442383 17.2633 0.442383C8.06843 0.442383 0.615234 8.22104 0.615234 17.8174C0.615234 27.4137 8.06843 35.1924 17.2633 35.1924C21.3868 35.1924 25.1775 33.6153 28.0973 30.9956L28.7888 31.7441V33.8558L41.595 47.1945L45.4112 43.2116L32.6307 29.8462ZM17.2633 29.8462C10.8858 29.8462 5.7377 24.4733 5.7377 17.8174C5.7377 11.1614 10.8858 5.78854 17.2633 5.78854C23.6407 5.78854 28.7888 11.1614 28.7888 17.8174C28.7888 24.4733 23.6407 29.8462 17.2633 29.8462Z" fill="#57D9C1"/>
</svg>
