<svg width="49" height="49" viewBox="0 0 49 49" fill="none" xmlns="http://www.w3.org/2000/svg">
<g clip-path="url(#clip0)">
<path d="M28.5766 31.2327H16.6054V19.2612C16.6054 18.4354 15.935 17.7649 15.1088 17.7649C14.283 17.7649 13.6125 18.4354 13.6125 19.2612V31.2327H1.64107C0.815229 31.2327 0.144745 31.9031 0.144745 32.729C0.144745 33.5551 0.815229 34.2256 1.64107 34.2256H13.6125V46.1968C13.6125 47.0229 14.283 47.6934 15.1088 47.6934C15.935 47.6934 16.6054 47.0229 16.6054 46.1968V34.2256H28.5766C29.4027 34.2256 30.0732 33.5551 30.0732 32.729C30.0732 31.9031 29.4027 31.2327 28.5766 31.2327Z" fill="#313131"/>
</g>
<defs>
<clipPath id="clip0">
<rect x="0.378052" y="0.399902" width="47.8856" height="47.8856" fill="white"/>
</clipPath>
</defs>
</svg>
