<svg width="48" height="44" viewBox="0 0 48 44" fill="none" xmlns="http://www.w3.org/2000/svg">
<path d="M41.0435 26.7565C38.4379 24.356 35.3281 22.589 31.9346 21.5372C35.064 19.4063 37.0975 15.9839 37.0975 12.1318C37.0975 5.68623 31.4056 0.442383 24.4091 0.442383C17.4127 0.442383 11.7207 5.68623 11.7207 12.1318C11.7207 15.984 13.7541 19.4064 16.8836 21.5372C13.4901 22.589 10.3805 24.356 7.77466 26.7565C3.33154 30.85 0.884521 36.2925 0.884521 42.0815C0.884521 43.0238 1.71367 43.7877 2.73653 43.7877H46.0817C47.1045 43.7877 47.9337 43.0238 47.9337 42.0815C47.9338 36.2925 45.4867 30.85 41.0435 26.7565ZM15.4249 12.1318C15.4249 7.56786 19.4552 3.85489 24.4092 3.85489C29.3633 3.85489 33.3935 7.56786 33.3935 12.1318C33.3935 16.6958 29.3633 20.4087 24.4092 20.4087C19.4552 20.4088 15.4249 16.6958 15.4249 12.1318ZM4.67447 40.3752C5.61122 31.1034 14.1045 23.8213 24.4091 23.8213C34.7137 23.8213 43.2071 31.1034 44.1438 40.3752H4.67447Z" fill="#8752CC"/>
</svg>
