<svg width="20" height="21" viewBox="0 0 20 21" fill="none" xmlns="http://www.w3.org/2000/svg">
<path d="M14.2939 13.1279H13.3905L13.0703 12.8057C14.191 11.4451 14.8656 9.67884 14.8656 7.75739C14.8656 3.47292 11.538 0 7.43282 0C3.32762 0 0 3.47292 0 7.75739C0 12.0419 3.32762 15.5148 7.43282 15.5148C9.27387 15.5148 10.9663 14.8107 12.2699 13.6411L12.5786 13.9752V14.9181L18.2962 20.8734L20 19.0951L14.2939 13.1279ZM7.43282 13.1279C4.58548 13.1279 2.28702 10.7291 2.28702 7.75739C2.28702 4.78571 4.58548 2.38689 7.43282 2.38689C10.2802 2.38689 12.5786 4.78571 12.5786 7.75739C12.5786 10.7291 10.2802 13.1279 7.43282 13.1279Z" fill="#E7E4FF"/>
</svg>
