<svg width="18" height="19" viewBox="0 0 18 19" fill="none" xmlns="http://www.w3.org/2000/svg">
<path d="M12.8645 11.8151H12.0515L11.7633 11.5251C12.7719 10.3006 13.3791 8.71095 13.3791 6.98165C13.3791 3.12563 10.3842 0 6.68954 0C2.99485 0 0 3.12563 0 6.98165C0 10.8377 2.99485 13.9633 6.68954 13.9633C8.34648 13.9633 9.86964 13.3296 11.0429 12.277L11.3208 12.5777V13.4263L16.4666 18.786L18 17.1856L12.8645 11.8151ZM6.68954 11.8151C4.12693 11.8151 2.05832 9.65616 2.05832 6.98165C2.05832 4.30714 4.12693 2.1482 6.68954 2.1482C9.25214 2.1482 11.3208 4.30714 11.3208 6.98165C11.3208 9.65616 9.25214 11.8151 6.68954 11.8151Z" fill="#57D9C1"/>
</svg>
