<svg width="122" height="117" viewBox="0 0 122 117" fill="none" xmlns="http://www.w3.org/2000/svg">
<path d="M119.005 53.0816C121.388 50.759 122.23 47.3503 121.202 44.1816C120.171 41.0129 117.487 38.7509 114.19 38.2709L84.8741 34.0112C83.6255 33.8293 82.5467 33.0462 81.9891 31.914L68.8826 5.34964C67.411 2.36518 64.4241 0.510498 61.0954 0.510498C57.7691 0.510498 54.7822 2.36518 53.3106 5.34964L40.2017 31.914C39.6441 33.0462 38.5628 33.8293 37.3142 34.0112L7.99815 38.2733C4.70336 38.7509 2.01953 41.0129 0.989149 44.1816C-0.0388051 47.3503 0.802469 50.759 3.18567 53.0816L24.3969 73.7571C25.3012 74.6396 25.7158 75.91 25.5025 77.1513L20.496 106.349C19.9336 109.629 21.2549 112.88 23.9484 114.839C26.6395 116.8 30.1428 117.055 33.0933 115.501L59.311 101.716C60.4287 101.129 61.7621 101.129 62.8798 101.716L89.0999 115.501C90.38 116.175 91.7667 116.507 93.1462 116.507C94.9379 116.507 96.7223 115.947 98.2448 114.839C100.938 112.88 102.26 109.629 101.697 106.349L96.6883 77.1537C96.475 75.91 96.8895 74.642 97.7938 73.7595L119.005 53.0816ZM91.9122 77.9732L96.9186 107.168C97.1708 108.637 96.601 110.041 95.3937 110.919C94.1839 111.794 92.6783 111.901 91.357 111.212L65.1369 97.4243C63.8738 96.7624 62.4822 96.4279 61.0954 96.4279C59.7086 96.4279 58.3194 96.7624 57.0539 97.4267L30.8386 111.212C29.5125 111.901 28.0069 111.794 26.7995 110.919C25.5922 110.041 25.0249 108.64 25.2746 107.168L30.281 77.9732C30.7635 75.156 29.8301 72.2806 27.7838 70.2878L6.57017 49.6099C5.501 48.5674 5.13733 47.0982 5.6004 45.6799C6.06104 44.2592 7.21749 43.2846 8.69396 43.0688L38.0076 38.8091C40.8369 38.3994 43.2832 36.6247 44.5463 34.0596L57.6551 7.49526C58.3146 6.15697 59.6019 5.35934 61.093 5.35934C62.5864 5.35934 63.8714 6.15697 64.5332 7.49526L77.6421 34.0596C78.9052 36.6247 81.349 38.3994 84.1783 38.8091L113.494 43.0688C114.971 43.2846 116.127 44.2592 116.588 45.6799C117.049 47.0982 116.687 48.5674 115.618 49.6099L94.4069 70.2853C92.3607 72.2806 91.4273 75.1536 91.9122 77.9732Z" fill="#D5B6FC"/>
</svg>
