<svg width="182" height="174" viewBox="0 0 182 174" fill="none" xmlns="http://www.w3.org/2000/svg">
<path d="M177.671 78.8567C181.245 75.3728 182.507 70.2597 180.965 65.5066C179.42 60.7536 175.394 57.3606 170.448 56.6405L126.474 50.251C124.601 49.9782 122.983 48.8036 122.146 47.1053L102.487 7.25872C100.279 2.78202 95.799 0 90.8059 0C85.8165 0 81.3361 2.78202 79.1287 7.25872L59.4654 47.1053C58.629 48.8036 57.0071 49.9782 55.1342 50.251L11.1601 56.6442C6.21789 57.3606 2.19213 60.7536 0.646566 65.5066C-0.895366 70.2597 0.366545 75.3728 3.94135 78.8567L35.7582 109.87C37.1147 111.194 37.7366 113.099 37.4165 114.961L29.9069 158.757C29.0632 163.678 31.0452 168.554 35.0855 171.493C39.1221 174.435 44.3771 174.817 48.8028 172.485L88.1294 151.808C89.8059 150.927 91.806 150.927 93.4825 151.808L132.813 172.485C134.733 173.496 136.813 173.995 138.882 173.995C141.57 173.995 144.246 173.155 146.53 171.493C150.57 168.554 152.552 163.678 151.709 158.757L144.195 114.965C143.875 113.099 144.497 111.197 145.854 109.874L177.671 78.8567ZM137.031 116.194L144.541 159.986C144.919 162.19 144.064 164.296 142.253 165.612C140.439 166.925 138.18 167.085 136.198 166.052L96.8682 145.371C94.9735 144.378 92.8861 143.876 90.8059 143.876C88.7258 143.876 86.642 144.378 84.7437 145.374L45.4208 166.052C43.4315 167.085 41.1732 166.925 39.3621 165.612C37.5511 164.296 36.7001 162.194 37.0747 159.986L44.5843 116.194C45.308 111.968 43.9079 107.655 40.8386 104.666L9.01809 73.6491C7.41434 72.0853 6.86884 69.8815 7.56344 67.7541C8.2544 65.623 9.98907 64.1611 12.2038 63.8374L56.1743 57.4479C60.4182 56.8333 64.0876 54.1713 65.9823 50.3237L85.6456 10.4771C86.6347 8.46972 88.5658 7.27326 90.8023 7.27326C93.0425 7.27326 94.9699 8.46972 95.9627 10.4771L115.626 50.3237C117.521 54.1713 121.186 56.8333 125.43 57.4479L169.404 63.8374C171.619 64.1611 173.354 65.623 174.045 67.7541C174.736 69.8815 174.194 72.0853 172.59 73.6491L140.773 104.662C137.704 107.655 136.304 111.965 137.031 116.194Z" fill="#8752CC"/>
</svg>
